<?xml version="1.0" encoding="utf-8"?>
<!-- Generator: Adobe Illustrator 16.0.0, SVG Export Plug-In . SVG Version: 6.00 Build 0)  -->
<!DOCTYPE svg PUBLIC "-//W3C//DTD SVG 1.1//EN" "http://www.w3.org/Graphics/SVG/1.1/DTD/svg11.dtd">
<svg version="1.1" id="Layer_1" xmlns="http://www.w3.org/2000/svg" xmlns:xlink="http://www.w3.org/1999/xlink" x="0px" y="0px"
	 width="4624.661px" height="4047.088px" viewBox="0 0 4624.661 4047.088" enable-background="new 0 0 4624.661 4047.088"
	 xml:space="preserve">
<line fill="none" stroke="#000000" stroke-width="4" stroke-miterlimit="10" x1="-474" y1="7284.088" x2="-474" y2="7561.088"/>
<text transform="matrix(1 0 0 1 2850.2773 5161.0117)"><tspan x="0" y="0" font-family="'SegoeUI-Semibold'" font-size="87" letter-spacing="3">ptn     project-template-name</tspan><tspan x="0" y="131" font-family="'SegoeUI-Semibold'" font-size="87" letter-spacing="3">SAR    Students Attendance Record</tspan><tspan x="0" y="262" font-family="'SegoeUI-Semibold'" font-size="87" letter-spacing="3">C.R     Class Records</tspan><tspan x="0" y="393" font-family="'SegoeUI-Semibold'" font-size="87" letter-spacing="3">I1        5265636f726473a7d5v7125f</tspan><tspan x="0" y="524" font-family="'SegoeUI-Semibold'" font-size="87" letter-spacing="3">I2       436f6e74726163740d0a0dIn5v</tspan><tspan x="0" y="655" font-family="'SegoeUI-Semibold'" font-size="87" letter-spacing="3">I3       436f6e74726163740d0a21t5</tspan><tspan x="0" y="786" font-family="'SegoeUI-Semibold'" font-size="87" letter-spacing="3">ENG    Engineering</tspan><tspan x="0" y="917" font-family="'SegoeUI-Semibold'" font-size="87" letter-spacing="3">C        Costing</tspan><tspan x="0" y="1048" font-family="'SegoeUI-Semibold'" font-size="87" letter-spacing="3">D        Document</tspan><tspan x="0" y="1179" font-family="'SegoeUI-Semibold'" font-size="87" letter-spacing="3">Co      Contract</tspan><tspan x="0" y="1310" font-family="'SegoeUI-Semibold'" font-size="87" letter-spacing="3">P&gt;A    Product&gt;Aspire</tspan><tspan x="0" y="1441" font-family="'SegoeUI-Semibold'" font-size="87" letter-spacing="3">R        Record</tspan></text>
<circle fill="#EFF492" stroke="#000000" stroke-width="4" stroke-miterlimit="10" cx="1149.022" cy="536.317" r="118.512"/>
<circle fill="#EFF492" stroke="#000000" stroke-width="4" stroke-miterlimit="10" cx="477.022" cy="1062.317" r="118.512"/>
<circle fill="#EFF492" stroke="#000000" stroke-width="4" stroke-miterlimit="10" cx="680.022" cy="1641.317" r="118.512"/>
<circle fill="#EFF492" stroke="#000000" stroke-width="4" stroke-miterlimit="10" cx="960.022" cy="1634.317" r="118.512"/>
<circle fill="#EFF492" stroke="#000000" stroke-width="4" stroke-miterlimit="10" cx="1326.022" cy="1634.317" r="118.512"/>
<circle fill="none" cx="1971.022" cy="1622.317" r="118.512"/>
<text transform="matrix(1 0 0 1 1929.7139 1577.8291)" font-family="'SegoeUI-Semibold'" font-size="100"> </text>
<circle fill="#EFF492" stroke="#000000" stroke-width="4" stroke-miterlimit="10" cx="1577.022" cy="1632.317" r="118.512"/>
<circle fill="#EFF492" stroke="#000000" stroke-width="4" stroke-miterlimit="10" cx="1969.022" cy="1624.317" r="118.512"/>
<circle fill="#EFF492" stroke="#000000" stroke-width="4" stroke-miterlimit="10" cx="677.022" cy="2157.317" r="118.512"/>
<circle fill="#EFF492" stroke="#000000" stroke-width="4" stroke-miterlimit="10" cx="1334.022" cy="2146.318" r="118.512"/>
<circle fill="#EFF492" stroke="#000000" stroke-width="4" stroke-miterlimit="10" cx="1973.022" cy="2138.318" r="118.513"/>
<circle fill="#EFF492" stroke="#000000" stroke-width="4" stroke-miterlimit="10" cx="290.022" cy="1643.317" r="118.512"/>
<circle fill="#EFF492" stroke="#000000" stroke-width="4" stroke-miterlimit="10" cx="489.022" cy="2740.317" r="118.512"/>
<circle fill="#EFF492" stroke="#000000" stroke-width="4" stroke-miterlimit="10" cx="869.022" cy="2742.317" r="118.512"/>
<circle fill="#EFF492" stroke="#000000" stroke-width="4" stroke-miterlimit="10" cx="861.022" cy="3251.317" r="118.512"/>
<circle fill="#EFF492" stroke="#000000" stroke-width="4" stroke-miterlimit="10" cx="1148.022" cy="2729.317" r="118.512"/>
<circle fill="#EFF492" stroke="#000000" stroke-width="4" stroke-miterlimit="10" cx="1528.022" cy="2728.317" r="118.512"/>
<circle fill="#EFF492" stroke="#000000" stroke-width="4" stroke-miterlimit="10" cx="1535.022" cy="3241.317" r="118.512"/>
<circle fill="#EFF492" stroke="#000000" stroke-width="4" stroke-miterlimit="10" cx="862.022" cy="3766.317" r="118.512"/>
<circle fill="#EFF492" stroke="#000000" stroke-width="4" stroke-miterlimit="10" cx="1544.022" cy="3755.317" r="118.512"/>
<circle fill="#EFF492" stroke="#000000" stroke-width="4" stroke-miterlimit="10" cx="2166.022" cy="3745.317" r="118.512"/>
<circle fill="#EFF492" stroke="#000000" stroke-width="4" stroke-miterlimit="10" cx="1801.022" cy="2727.317" r="118.512"/>
<circle fill="#EFF492" stroke="#000000" stroke-width="4" stroke-miterlimit="10" cx="2164.022" cy="2720.317" r="118.512"/>
<circle fill="#EFF492" stroke="#000000" stroke-width="4" stroke-miterlimit="10" cx="2166.022" cy="3230.317" r="118.512"/>
<circle fill="#EFF492" stroke="#000000" stroke-width="4" stroke-miterlimit="10" cx="1149.022" cy="1050.317" r="118.512"/>
<circle fill="#EFF492" stroke="#000000" stroke-width="4" stroke-miterlimit="10" cx="1760.022" cy="1045.317" r="118.512"/>
<line fill="none" stroke="#000000" stroke-width="4" stroke-miterlimit="10" x1="849.051" y1="728.207" x2="849.051" y2="728.207"/>
<line fill="none" stroke="#000000" stroke-width="4" stroke-miterlimit="10" x1="1342" y1="1752.088" x2="1342" y2="2029.088"/>
<line fill="none" stroke="#000000" stroke-width="4" stroke-miterlimit="10" x1="1150" y1="655.088" x2="1150" y2="932.088"/>
<line fill="none" stroke="#000000" stroke-width="4" stroke-miterlimit="10" x1="859" y1="2858.088" x2="859" y2="3135.088"/>
<line fill="none" stroke="#000000" stroke-width="4" stroke-miterlimit="10" x1="1531" y1="2846.088" x2="1531" y2="3123.088"/>
<line fill="none" stroke="#000000" stroke-width="4" stroke-miterlimit="10" x1="1544" y1="3360.088" x2="1544" y2="3637.088"/>
<line fill="none" stroke="#000000" stroke-width="4" stroke-miterlimit="10" x1="2167" y1="3349.088" x2="2167" y2="3626.088"/>
<line fill="none" stroke="#000000" stroke-width="4" stroke-miterlimit="10" x1="862" y1="3370.088" x2="862" y2="3647.088"/>
<line fill="none" stroke="#000000" stroke-width="4" stroke-miterlimit="10" x1="2167" y1="2836.088" x2="2167" y2="3113.088"/>
<line fill="none" stroke="#000000" stroke-width="4" stroke-miterlimit="10" x1="1973" y1="1743.088" x2="1973" y2="2020.088"/>
<line fill="none" stroke="#000000" stroke-width="4" stroke-miterlimit="10" x1="678" y1="1762.088" x2="678" y2="2039.088"/>
<line fill="none" stroke="#000000" stroke-width="4" stroke-miterlimit="10" x1="446.93" y1="1175.573" x2="283.778" y2="1525.806"/>
<line fill="none" stroke="#000000" stroke-width="4" stroke-miterlimit="10" x1="1310.93" y1="2261.573" x2="1147.778" y2="2611.806"/>
<line fill="none" stroke="#000000" stroke-width="4" stroke-miterlimit="10" x1="1957.93" y1="2255.573" x2="1794.778" y2="2605.806"/>
<line fill="none" stroke="#000000" stroke-width="4" stroke-miterlimit="10" x1="649.93" y1="2271.573" x2="486.778" y2="2621.806"/>
<line fill="none" stroke="#000000" stroke-width="4" stroke-miterlimit="10" x1="1117.93" y1="1165.573" x2="954.778" y2="1515.806"/>
<line fill="none" stroke="#000000" stroke-width="4" stroke-miterlimit="10" x1="1738.93" y1="1162.573" x2="1575.778" y2="1512.806"/>
<line fill="none" stroke="#000000" stroke-width="4" stroke-miterlimit="10" x1="1156.022" y1="1168.829" x2="1328.022" y2="1516.806"/>
<line fill="none" stroke="#000000" stroke-width="4" stroke-miterlimit="10" x1="509.022" y1="1175.829" x2="681.022" y2="1523.806"/>
<line fill="none" stroke="#000000" stroke-width="4" stroke-miterlimit="10" x1="699.022" y1="2275.829" x2="871.022" y2="2623.806"/>
<line fill="none" stroke="#000000" stroke-width="4" stroke-miterlimit="10" x1="1356.022" y1="2262.829" x2="1528.022" y2="2610.806"/>
<line fill="none" stroke="#000000" stroke-width="4" stroke-miterlimit="10" x1="1995.022" y1="2254.829" x2="2167.022" y2="2602.806"/>
<line fill="none" stroke="#000000" stroke-width="4" stroke-miterlimit="10" x1="1798.022" y1="1157.829" x2="1970.022" y2="1505.806"/>
<line fill="none" stroke="#000000" stroke-width="4" stroke-miterlimit="10" x1="1150" y1="273.088" x2="1150" y2="418.088"/>
<line stroke="#000000" stroke-width="4" stroke-miterlimit="10" x1="1041.321" y1="585.82" x2="474.511" y2="944.314"/>
<text transform="matrix(1 0 0 1 1264.6504 1852.9316)" font-family="'MyriadPro-Regular'" font-size="87">  </text>
<line fill="none" stroke="#000000" stroke-width="4" stroke-miterlimit="10" x1="1256.724" y1="585.82" x2="1763.854" y2="927.537"/>
<text transform="matrix(1 0 0 1 917.2471 242.3125)" font-family="'SegoeUI-Semibold'" font-size="100">ELEMENTS</text>
<text transform="matrix(1 0 0 1 1100.9336 565.5186)" font-family="'SegoeUI-Semibold'" font-size="100">[ ]</text>
<text transform="matrix(1 0 0 1 426.9668 1091.4912)" font-family="'SegoeUI-Semibold'" font-size="100">{ }</text>
<text transform="matrix(1 0 0 1 234.4766 1677.9609)" font-family="'SegoeUI-Semibold'" font-size="100">P1</text>
<text transform="matrix(1 0 0 1 634.458 1666.9609)" font-family="'SegoeUI-Semibold'" font-size="100">[ ]</text>
<text transform="matrix(1 0 0 1 902.4434 1660.96)" font-family="'SegoeUI-Semibold'" font-size="100">P2</text>
<text transform="matrix(1 0 0 1 1285.9248 1657.9619)" font-family="'SegoeUI-Semibold'" font-size="100">[ ]</text>
<text transform="matrix(1 0 0 1 1530.9111 1654.9619)" font-family="'SegoeUI-Semibold'" font-size="100">P3</text>
<text transform="matrix(1 0 0 1 1929.3916 1647.9619)" font-family="'SegoeUI-Semibold'" font-size="100">[ ]</text>
<text transform="matrix(1 0 0 1 628.957 2181.4336)" font-family="'SegoeUI-Semibold'" font-size="100">{ } </text>
<text transform="matrix(1 0 0 1 1291.5107 2169.3174)" font-family="'SegoeUI-Semibold'" font-size="100">{ }</text>
<text transform="matrix(1 0 0 1 1925.3906 2157.4346)" font-family="'SegoeUI-Semibold'" font-size="100">{ }</text>
<text transform="matrix(1 0 0 1 401.4639 2777.9033)" font-family="'SegoeUI-Semibold'" font-size="100">VAL</text>
<text transform="matrix(1 0 0 1 1070.4297 2757.8975)" font-family="'SegoeUI-Semibold'" font-size="100">VAL</text>
<text transform="matrix(1 0 0 1 1720.7148 2757.8975)" font-family="'SegoeUI-Semibold'" font-size="100">VAL</text>
<text transform="matrix(1 0 0 1 822.9473 2757.8975)" font-family="'SegoeUI-Semibold'" font-size="100">[ ]</text>
<text transform="matrix(1 0 0 1 1481.4141 2757.8975)" font-family="'SegoeUI-Semibold'" font-size="100">[ ]</text>
<text transform="matrix(1 0 0 1 2120.3828 2750.3984)" font-family="'SegoeUI-Semibold'" font-size="100">[ ]</text>
<text transform="matrix(1 0 0 1 815.9453 3264.373)" font-family="'SegoeUI-Semibold'" font-size="100">{ }</text>
<text transform="matrix(1 0 0 1 1489.4111 3273.373)" font-family="'SegoeUI-Semibold'" font-size="100">{ }</text>
<text transform="matrix(1 0 0 1 2120.3828 3251.3174)" font-family="'SegoeUI-Semibold'" font-size="100">{ }</text>
<text transform="matrix(1 -0.0058 0.0058 1 797.0674 3800.6387)" font-family="'SegoeUI-Semibold'" font-size="100">CS</text>
<text transform="matrix(1 -0.0058 0.0058 1 1528.3818 3790.1387)" font-family="'SegoeUI-Semibold'" font-size="100">I</text>
<text transform="matrix(1 -0.0058 0.0058 1 2089.8506 3766.2754)" font-family="'SegoeUI-Semibold'" font-size="100">P&amp;I</text>
<line fill="none" x1="1364.686" y1="6931.959" x2="527.976" y2="7768.67"/>
<text transform="matrix(0.3866 -0.9223 0.9223 0.3866 313.2095 1346.3604)" font-family="'SegoeUI-Semibold'" font-size="87">Id</text>
<text transform="matrix(0.3866 -0.9223 0.9223 0.3866 987.5181 1350.6201)" font-family="'SegoeUI-Semibold'" font-size="87">Id</text>
<text transform="matrix(0.3866 -0.9223 0.9223 0.3866 1624.6719 1350.6201)" font-family="'SegoeUI-Semibold'" font-size="87">Id</text>
<text transform="matrix(0.4086 0.9127 -0.9127 0.4086 580.8989 1254.9209)" font-family="'SegoeUI-Semibold'" font-size="87">data</text>
<text transform="matrix(0.4086 0.9127 -0.9127 0.4086 1242.0396 1254.9209)" font-family="'SegoeUI-Semibold'" font-size="87">data</text>
<text transform="matrix(0.4086 0.9127 -0.9127 0.4086 1876.3721 1230.9248)" font-family="'SegoeUI-Semibold'" font-size="87">data</text>
<text transform="matrix(0.4 -0.9165 0.9165 0.4 445.5669 2603.4785)" font-family="'SegoeUI-Semibold'" font-size="87">Property</text>
<text transform="matrix(0.4 -0.9165 0.9165 0.4 1100.98 2570.9727)" font-family="'SegoeUI-Semibold'" font-size="87">Property</text>
<text transform="matrix(0.4 -0.9165 0.9165 0.4 1760.0693 2570.9717)" font-family="'SegoeUI-Semibold'" font-size="87">Property</text>
<text transform="matrix(0.4376 0.8992 -0.8992 0.4376 781.5679 2305.0425)" font-family="'SegoeUI-Semibold'" font-size="87">value</text>
<text transform="matrix(0.4376 0.8992 -0.8992 0.4376 1437.5098 2294.0425)" font-family="'SegoeUI-Semibold'" font-size="87">value</text>
<text transform="matrix(0.4376 0.8992 -0.8992 0.4376 2067.998 2288.0425)" font-family="'SegoeUI-Semibold'" font-size="87">value</text>
<text transform="matrix(-0.0032 -1 1 -0.0032 1489.3203 3636.9551)" font-family="'SegoeUI-Semibold'" font-size="87">Project</text>
<text transform="matrix(-0.0032 -1 1 -0.0032 2120.292 3625.9551)" font-family="'SegoeUI-Semibold'" font-size="87">Project</text>
<text transform="matrix(-2.600000e-004 -1 1 -2.600000e-004 707.9106 3693.3828)"><tspan x="0" y="0" font-family="'SegoeUI-Semibold'" font-size="87">Template</tspan><tspan x="0" y="104.4" font-family="'SegoeUI-Semibold'" font-size="87">   name</tspan></text>
<line fill="none" x1="2817" y1="240.088" x2="2943" y2="240.088"/>
<line fill="none" x1="2754" y1="212.088" x2="2880" y2="212.088"/>
<text transform="matrix(0.538 0 0 1 2484.2354 227.4219)" stroke="#000000" stroke-width="2" font-family="'SegoeUI-Semibold'" font-size="145.9666">&gt;</text>
<line stroke="#000000" stroke-width="2" stroke-miterlimit="10" x1="2428" y1="165.088" x2="2485" y2="165.088"/>
<line stroke="#000000" stroke-width="2" stroke-miterlimit="10" x1="2428" y1="202.088" x2="2485" y2="202.088"/>
<text transform="matrix(0.538 0 0 1 2482.2354 449.4219)" stroke="#000000" stroke-width="2" font-family="'SegoeUI-Semibold'" font-size="145.9666">&gt;</text>
<line stroke="#000000" stroke-width="2" stroke-miterlimit="10" x1="2426" y1="387.088" x2="2483" y2="387.088"/>
<line stroke="#000000" stroke-width="2" stroke-miterlimit="10" x1="2426" y1="424.088" x2="2483" y2="424.088"/>
<text transform="matrix(0.538 0 0 1 2460.2354 627.4219)" stroke="#000000" stroke-width="2" font-family="'SegoeUI-Semibold'" font-size="145.9666">&gt;</text>
<line stroke="#000000" stroke-width="2" stroke-miterlimit="10" x1="2404" y1="565.088" x2="2461" y2="565.088"/>
<line stroke="#000000" stroke-width="2" stroke-miterlimit="10" x1="2404" y1="602.088" x2="2461" y2="602.088"/>
<text transform="matrix(0.538 0 0 1 2461.2354 824.4219)" stroke="#000000" stroke-width="2" font-family="'SegoeUI-Semibold'" font-size="145.9666">&gt;</text>
<line stroke="#000000" stroke-width="2" stroke-miterlimit="10" x1="2405" y1="762.088" x2="2462" y2="762.088"/>
<line stroke="#000000" stroke-width="2" stroke-miterlimit="10" x1="2405" y1="799.088" x2="2462" y2="799.088"/>
<text transform="matrix(0.538 0 0 1 2458.2354 1006.4219)" stroke="#000000" stroke-width="2" font-family="'SegoeUI-Semibold'" font-size="145.9666">&gt;</text>
<line stroke="#000000" stroke-width="2" stroke-miterlimit="10" x1="2402" y1="944.088" x2="2459" y2="944.088"/>
<line stroke="#000000" stroke-width="2" stroke-miterlimit="10" x1="2402" y1="981.088" x2="2459" y2="981.088"/>
<text transform="matrix(0.538 0 0 1 2461.2354 1200.4219)" stroke="#000000" stroke-width="2" font-family="'SegoeUI-Semibold'" font-size="145.9666">&gt;</text>
<line stroke="#000000" stroke-width="2" stroke-miterlimit="10" x1="2405" y1="1138.088" x2="2462" y2="1138.088"/>
<line stroke="#000000" stroke-width="2" stroke-miterlimit="10" x1="2405" y1="1175.088" x2="2462" y2="1175.088"/>
<text transform="matrix(1 0 0 1 2552.9443 213.3154)" font-family="'SegoeUI-Semibold'" font-size="87">Project-create project </text>
<text transform="matrix(1 0 0 1 2567.9258 601.9453)" font-family="'SegoeUI-Semibold'" font-size="87">Project-create project </text>
<text transform="matrix(1 0 0 1 2560.9316 423.9453)" font-family="'SegoeUI-Semibold'" font-size="87">Projec-create project </text>
<text transform="matrix(1 0 0 1 3416.2988 225.4219)" font-family="'SegoeUI-Semibold'" font-size="87">-Project template- selectZ</text>
<text transform="matrix(1 0 0 1 3397.0273 418.5186)" font-family="'SegoeUI-Semibold'" font-size="87">-Project name</text>
<text transform="matrix(1 0 0 1 3437.0273 608.3145)" font-family="'SegoeUI-Semibold'" font-size="87">-Project description</text>
<text transform="matrix(1 0 0 1 2291.5342 808.9453)" font-family="'SegoeUI-Semibold'" font-size="87">CS</text>
<text transform="matrix(1 0 0 1 2350.624 996.9453)" font-family="'SegoeUI-Semibold'" font-size="87">I</text>
<text transform="matrix(1 0 0 1 2242.6035 1184.9453)" font-family="'SegoeUI-Semibold'" font-size="87">P&amp;I</text>
<text transform="matrix(1 0 0 1 2309.9932 225.4219)" font-family="'SegoeUI-Semibold'" font-size="87">P1</text>
<text transform="matrix(1 0 0 1 2297.5342 437.6787)" font-family="'SegoeUI-Semibold'" font-size="87">P2</text>
<text transform="matrix(1 0 0 1 2283.9932 624.4219)" font-family="'SegoeUI-Semibold'" font-size="87">P3</text>
<text transform="matrix(1 0 0 1 2558.9443 808.9453)" font-family="'SegoeUI-Semibold'" font-size="87">Class work</text>
<text transform="matrix(1 0 0 1 2545.9482 980.9453)" font-family="'SegoeUI-Semibold'" font-size="87">Inventory</text>
<text transform="matrix(1 0 0 1 2548.9482 1174.9453)" font-family="'SegoeUI-Semibold'" font-size="87">Paper and ink</text>
<text transform="matrix(1 0 0 1 1719.7148 1064.9922)" font-family="'SegoeUI-Semibold'" font-size="100">{ }</text>
<text transform="matrix(1 0 0 1 699.0225 748.1885)" font-family="'SegoeUI-Semibold'" font-size="87">0</text>
<text transform="matrix(1 0 0 1 785.0225 3051.3096)" font-family="'SegoeUI-Semibold'" font-size="87">0</text>
<text transform="matrix(1 0 0 1 1452.5342 3051.3096)" font-family="'SegoeUI-Semibold'" font-size="87">0</text>
<text transform="matrix(1 0 0 1 2081.0225 3051.3096)" font-family="'SegoeUI-Semibold'" font-size="87">0</text>
<text transform="matrix(1 0 0 1 1884.0225 1923.5352)" font-family="'SegoeUI-Semibold'" font-size="87">0</text>
<text transform="matrix(1 0 0 1 580.8828 1923.5352)" font-family="'SegoeUI-Semibold'" font-size="87">0</text>
<text transform="matrix(1 0 0 1 1264.6504 1923.5352)" font-family="'SegoeUI-Semibold'" font-size="87">0</text>
<text transform="matrix(1 0 0 1 1078.5342 756.6787)" font-family="'SegoeUI-Semibold'" font-size="87">1</text>
<text transform="matrix(1 0 0 1 1549.6699 748.1885)" font-family="'SegoeUI-Semibold'" font-size="87">2</text>
<circle fill="#44A7D8" stroke="#000000" stroke-width="4" stroke-miterlimit="10" cx="-182.234" cy="4962.099" r="118.512"/>
<circle fill="#44A7D8" stroke="#000000" stroke-width="4" stroke-miterlimit="10" cx="-854.234" cy="5488.1" r="118.512"/>
<circle fill="#44A7D8" stroke="#000000" stroke-width="4" stroke-miterlimit="10" cx="-651.234" cy="6067.1" r="118.512"/>
<circle fill="#44A7D8" stroke="#000000" stroke-width="4" stroke-miterlimit="10" cx="-371.234" cy="6060.1" r="118.512"/>
<circle fill="#44A7D8" stroke="#000000" stroke-width="4" stroke-miterlimit="10" cx="-5.234" cy="6060.1" r="118.512"/>
<circle fill="none" cx="639.766" cy="6048.1" r="118.512"/>
<text transform="matrix(1 0 0 1 598.457 6003.6104)" font-family="'SegoeUI-Semibold'" font-size="100"> </text>
<circle fill="#44A7D8" stroke="#000000" stroke-width="4" stroke-miterlimit="10" cx="245.766" cy="6058.1" r="118.512"/>
<circle fill="#44A7D8" stroke="#000000" stroke-width="4" stroke-miterlimit="10" cx="637.766" cy="6050.1" r="118.512"/>
<circle fill="#44A7D8" stroke="#000000" stroke-width="4" stroke-miterlimit="10" cx="-654.234" cy="6583.1" r="118.512"/>
<circle fill="#44A7D8" stroke="#000000" stroke-width="4" stroke-miterlimit="10" cx="2.765" cy="6572.1" r="118.512"/>
<circle fill="#44A7D8" stroke="#000000" stroke-width="4" stroke-miterlimit="10" cx="641.766" cy="6564.1" r="118.513"/>
<circle fill="#44A7D8" stroke="#000000" stroke-width="4" stroke-miterlimit="10" cx="-1041.234" cy="6069.1" r="118.512"/>
<circle fill="#44A7D8" stroke="#000000" stroke-width="4" stroke-miterlimit="10" cx="-842.234" cy="7166.1" r="118.512"/>
<circle fill="#44A7D8" stroke="#000000" stroke-width="4" stroke-miterlimit="10" cx="-462.234" cy="7168.1" r="118.512"/>
<circle fill="#44A7D8" stroke="#000000" stroke-width="4" stroke-miterlimit="10" cx="-469.299" cy="7673.504" r="118.512"/>
<circle fill="#44A7D8" stroke="#000000" stroke-width="4" stroke-miterlimit="10" cx="-183.234" cy="7155.1" r="118.512"/>
<circle fill="#44A7D8" stroke="#000000" stroke-width="4" stroke-miterlimit="10" cx="196.766" cy="7154.1" r="118.512"/>
<circle fill="#44A7D8" stroke="#000000" stroke-width="4" stroke-miterlimit="10" cx="203.766" cy="7667.1" r="118.512"/>
<circle fill="#44A7D8" stroke="#000000" stroke-width="4" stroke-miterlimit="10" cx="1852.766" cy="7649.1" r="118.512"/>
<circle fill="#44A7D8" stroke="#000000" stroke-width="4" stroke-miterlimit="10" cx="-469.234" cy="8192.1" r="118.512"/>
<circle fill="#44A7D8" stroke="#000000" stroke-width="4" stroke-miterlimit="10" cx="2051.766" cy="8165.1" r="118.512"/>
<circle fill="#44A7D8" stroke="#000000" stroke-width="4" stroke-miterlimit="10" cx="2341.766" cy="8159.1" r="118.512"/>
<circle fill="#44A7D8" stroke="#000000" stroke-width="4" stroke-miterlimit="10" cx="181.766" cy="8212.1" r="118.512"/>
<circle fill="#44A7D8" stroke="#000000" stroke-width="4" stroke-miterlimit="10" cx="1522.766" cy="8176.1" r="118.512"/>
<circle fill="#44A7D8" stroke="#000000" stroke-width="4" stroke-miterlimit="10" cx="1782.766" cy="8165.1" r="118.512"/>
<circle fill="#44A7D8" stroke="#000000" stroke-width="4" stroke-miterlimit="10" cx="469.766" cy="7153.1" r="118.512"/>
<circle fill="#44A7D8" stroke="#000000" stroke-width="4" stroke-miterlimit="10" cx="1310.766" cy="7146.1" r="118.512"/>
<circle fill="#44A7D8" stroke="#000000" stroke-width="4" stroke-miterlimit="10" cx="759.766" cy="7666.1" r="118.512"/>
<circle fill="#44A7D8" stroke="#000000" stroke-width="4" stroke-miterlimit="10" cx="-182.234" cy="5476.1" r="118.512"/>
<circle fill="#44A7D8" stroke="#000000" stroke-width="4" stroke-miterlimit="10" cx="428.766" cy="5471.1" r="118.512"/>
<line fill="none" stroke="#000000" stroke-width="4" stroke-miterlimit="10" x1="-482.206" y1="5153.988" x2="-482.206" y2="5153.988"/>
<line fill="none" stroke="#000000" stroke-width="4" stroke-miterlimit="10" x1="9" y1="6178.088" x2="9" y2="6455.088"/>
<line fill="none" stroke="#000000" stroke-width="4" stroke-miterlimit="10" x1="-183" y1="5081.088" x2="-183" y2="5358.088"/>
<line fill="none" stroke="#000000" stroke-width="4" stroke-miterlimit="10" x1="198" y1="7272.088" x2="198" y2="7549.088"/>
<line fill="none" stroke="#000000" stroke-width="4" stroke-miterlimit="10" x1="-471" y1="7796.088" x2="-471" y2="8073.088"/>
<line fill="none" stroke="#000000" stroke-width="4" stroke-miterlimit="10" x1="640" y1="6169.088" x2="640" y2="6446.088"/>
<line fill="none" stroke="#000000" stroke-width="4" stroke-miterlimit="10" x1="-655" y1="6188.088" x2="-655" y2="6465.088"/>
<line fill="none" stroke="#000000" stroke-width="4" stroke-miterlimit="10" x1="-884.327" y1="5601.355" x2="-1047.479" y2="5951.588"/>
<line fill="none" stroke="#000000" stroke-width="4" stroke-miterlimit="10" x1="-20.327" y1="6687.355" x2="-183.479" y2="7037.588"/>
<line fill="none" stroke="#000000" stroke-width="4" stroke-miterlimit="10" x1="626.673" y1="6681.355" x2="463.521" y2="7031.588"/>
<line fill="none" stroke="#000000" stroke-width="4" stroke-miterlimit="10" x1="-681.327" y1="6697.355" x2="-844.479" y2="7047.588"/>
<line fill="none" stroke="#000000" stroke-width="4" stroke-miterlimit="10" x1="-213.327" y1="5591.355" x2="-376.479" y2="5941.588"/>
<line fill="none" stroke="#000000" stroke-width="4" stroke-miterlimit="10" x1="407.673" y1="5588.355" x2="244.521" y2="5938.588"/>
<line fill="none" stroke="#000000" stroke-width="4" stroke-miterlimit="10" x1="-175.234" y1="5594.611" x2="-3.234" y2="5942.588"/>
<line fill="none" stroke="#000000" stroke-width="4" stroke-miterlimit="10" x1="-822.234" y1="5601.611" x2="-650.234" y2="5949.588"/>
<line fill="none" stroke="#000000" stroke-width="4" stroke-miterlimit="10" x1="-632.234" y1="6701.611" x2="-460.234" y2="7049.588"/>
<line fill="none" stroke="#000000" stroke-width="4" stroke-miterlimit="10" x1="27.766" y1="6688.611" x2="199.766" y2="7036.588"/>
<line fill="none" stroke="#000000" stroke-width="4" stroke-miterlimit="10" x1="466.766" y1="5583.611" x2="638.766" y2="5931.588"/>
<line fill="none" stroke="#000000" stroke-width="4" stroke-miterlimit="10" x1="-183" y1="4699.088" x2="-183" y2="4844.088"/>
<line stroke="#000000" stroke-width="4" stroke-miterlimit="10" x1="-289.936" y1="5011.601" x2="-856.746" y2="5370.096"/>
<text transform="matrix(1 0 0 1 -66.6064 6278.7129)" font-family="'MyriadPro-Regular'" font-size="87">  </text>
<line fill="none" stroke="#000000" stroke-width="4" stroke-miterlimit="10" x1="-74.533" y1="5011.601" x2="432.598" y2="5353.318"/>
<text transform="matrix(1 0 0 1 -230.3232 4991.2998)" font-family="'SegoeUI-Semibold'" font-size="100">[ ]</text>
<text transform="matrix(1 0 0 1 -904.29 5517.2725)" font-family="'SegoeUI-Semibold'" font-size="100">{ }</text>
<text transform="matrix(1 0 0 1 -230.3242 5490.7734)" font-family="'SegoeUI-Semibold'" font-size="100">{ }</text>
<text transform="matrix(1 0 0 1 -1096.7803 6103.7422)" font-family="'SegoeUI-Semibold'" font-size="100">P1</text>
<text transform="matrix(1 0 0 1 -696.7988 6092.7422)" font-family="'SegoeUI-Semibold'" font-size="100">[ ]</text>
<text transform="matrix(1 0 0 1 -428.8135 6086.7412)" font-family="'SegoeUI-Semibold'" font-size="100">P2</text>
<text transform="matrix(1 0 0 1 -45.332 6083.7432)" font-family="'SegoeUI-Semibold'" font-size="100">[ ]</text>
<text transform="matrix(1 0 0 1 199.6543 6080.7432)" font-family="'SegoeUI-Semibold'" font-size="100">g</text>
<text transform="matrix(1 0 0 1 598.1348 6073.7432)" font-family="'SegoeUI-Semibold'" font-size="100">[ ]</text>
<text transform="matrix(1 0 0 1 -702.2998 6607.2148)" font-family="'SegoeUI-Semibold'" font-size="100">{ } </text>
<text transform="matrix(1 0 0 1 -39.7461 6595.0986)" font-family="'SegoeUI-Semibold'" font-size="100">{ }</text>
<text transform="matrix(1 0 0 1 594.1338 6583.2158)" font-family="'SegoeUI-Semibold'" font-size="100">{ }</text>
<text transform="matrix(1 0 0 1 -929.793 7203.6846)" font-family="'SegoeUI-Semibold'" font-size="100">VAL</text>
<text transform="matrix(1 0 0 1 388.458 7193.7744)" stroke="#000000" stroke-miterlimit="10" font-family="'SegoeUI-Semibold'" font-size="100">VAL</text>
<text transform="matrix(1 0 0 1 150.1572 7183.6787)" font-family="'SegoeUI-Semibold'" font-size="100">[ ]</text>
<text transform="matrix(1 0 0 1 1267.126 7176.1797)" font-family="'SegoeUI-Semibold'" font-size="100">[ ]</text>
<text transform="matrix(1 0 0 1 -516.2471 7699.75)" font-family="'SegoeUI-Semibold'" font-size="100">{ }</text>
<text transform="matrix(1 0 0 1 158.1543 7699.1543)" font-family="'SegoeUI-Semibold'" font-size="100">{ }</text>
<text transform="matrix(1 0 0 1 714.126 7687.0986)" font-family="'SegoeUI-Semibold'" font-size="100">{ }</text>
<text transform="matrix(1 -0.0058 0.0058 1 -560.1895 8226.4199)" stroke="#000000" stroke-width="4" font-family="'SegoeUI-Semibold'" font-size="100">SAR</text>
<text transform="matrix(1 -0.0058 0.0058 1 92.125 8234.9199)" font-family="'SegoeUI-Semibold'" font-size="100">C-R</text>
<text transform="matrix(0.3866 -0.9223 0.9223 0.3866 -1018.0474 5772.1426)" font-family="'SegoeUI-Semibold'" font-size="87">Id</text>
<text transform="matrix(0.3866 -0.9223 0.9223 0.3866 -343.7388 5776.4023)" font-family="'SegoeUI-Semibold'" font-size="87">Id</text>
<text transform="matrix(0.3866 -0.9223 0.9223 0.3866 293.4155 5776.4023)" font-family="'SegoeUI-Semibold'" font-size="87">Id</text>
<text transform="matrix(0.4086 0.9127 -0.9127 0.4086 -750.3579 5680.7017)" font-family="'SegoeUI-Semibold'" font-size="87">data</text>
<text transform="matrix(0.4086 0.9127 -0.9127 0.4086 -89.2183 5680.7017)" font-family="'SegoeUI-Semibold'" font-size="87">data</text>
<text transform="matrix(0.4086 0.9127 -0.9127 0.4086 545.1138 5656.7056)" font-family="'SegoeUI-Semibold'" font-size="87">data</text>
<text transform="matrix(0.4 -0.9165 0.9165 0.4 -885.6899 7029.2598)" font-family="'SegoeUI-Semibold'" font-size="87">property</text>
<text transform="matrix(0.4 -0.9165 0.9165 0.4 -230.2769 6996.7539)" font-family="'SegoeUI-Semibold'" font-size="87">property</text>
<text transform="matrix(0.4 -0.9165 0.9165 0.4 428.813 6996.7539)" font-family="'SegoeUI-Semibold'" font-size="87">property</text>
<text transform="matrix(0.4376 0.8992 -0.8992 0.4376 -549.689 6730.8232)" font-family="'SegoeUI-Semibold'" font-size="87">value</text>
<text transform="matrix(0.4376 0.8992 -0.8992 0.4376 106.2524 6719.8232)" font-family="'SegoeUI-Semibold'" font-size="87">value</text>
<text transform="matrix(0.8173 0.5762 -0.5762 0.8173 959.0845 6726.2793)" font-family="'SegoeUI-Semibold'" font-size="87">value</text>
<text transform="matrix(1 0 0 1 3113.6748 4927.7266)" font-family="'SegoeUI-Semibold'" font-size="87" letter-spacing="5"> project template-create project </text>
<text transform="matrix(1 0 0 1 2850.2773 4941.46)" font-family="'SegoeUI-Semibold'" font-size="87">P2</text>
<text transform="matrix(1 0 0 1 388.458 5490.7734)" font-family="'SegoeUI-Semibold'" font-size="100">{ }</text>
<text transform="matrix(1 0 0 1 -632.2344 5173.9697)" font-family="'SegoeUI-Semibold'" font-size="87">0</text>
<text transform="matrix(1 0 0 1 -546.2344 7477.0908)" font-family="'SegoeUI-Semibold'" font-size="87">0</text>
<text transform="matrix(1 0 0 1 121.2773 7477.0908)" font-family="'SegoeUI-Semibold'" font-size="87">0</text>
<text transform="matrix(1 0 0 1 878.2773 7370.0449)" font-family="'SegoeUI-Semibold'" font-size="87">0</text>
<text transform="matrix(1 0 0 1 552.7656 6349.3164)" font-family="'SegoeUI-Semibold'" font-size="87">0</text>
<text transform="matrix(1 0 0 1 -750.374 6349.3164)" font-family="'SegoeUI-Semibold'" font-size="87">0</text>
<text transform="matrix(1 0 0 1 -66.6064 6349.3164)" font-family="'SegoeUI-Semibold'" font-size="87">0</text>
<text transform="matrix(1 0 0 1 -252.7227 5182.46)" font-family="'SegoeUI-Semibold'" font-size="87">1</text>
<text transform="matrix(1 0 0 1 218.4131 5173.9697)" font-family="'SegoeUI-Semibold'" font-size="87">2</text>
<line fill="none" stroke="#000000" stroke-width="4" stroke-miterlimit="10" x1="736.766" y1="6633.074" x2="1305.746" y2="7034.588"/>
<line fill="none" stroke="#000000" stroke-width="4" stroke-miterlimit="10" x1="1192.254" y1="7146.1" x2="760.278" y2="7549.088"/>
<line fill="none" stroke="#000000" stroke-width="4" stroke-miterlimit="10" x1="1751.254" y1="7696.463" x2="1533.254" y2="8057.588"/>
<line fill="none" stroke="#000000" stroke-width="4" stroke-miterlimit="10" x1="1973.277" y1="7650.1" x2="2287.254" y2="8045.727"/>
<line fill="none" x1="1933.254" y1="7738.885" x2="2051.766" y2="8046.588"/>
<line fill="none" stroke="#000000" stroke-width="4" stroke-miterlimit="10" x1="1808" y1="7759.088" x2="1808" y2="8047.088"/>
<line fill="none" stroke="#000000" stroke-width="4" stroke-miterlimit="10" x1="2948" y1="7765.088" x2="2948" y2="8053.088"/>
<circle fill="#44A7D8" stroke="#000000" stroke-width="4" stroke-miterlimit="10" cx="432.766" cy="8191.1" r="118.512"/>
<circle fill="#44A7D8" stroke="#000000" stroke-width="4" stroke-miterlimit="10" cx="960.766" cy="8178.1" r="118.512"/>
<circle fill="#44A7D8" stroke="#000000" stroke-width="4" stroke-miterlimit="10" cx="1229.766" cy="8181.1" r="118.512"/>
<circle fill="none" cx="411.766" cy="8192.1" r="118.512"/>
<circle fill="#44A7D8" stroke="#000000" stroke-width="4" stroke-miterlimit="10" cx="691.766" cy="8181.1" r="118.512"/>
<text transform="matrix(1 -0.0058 0.0058 1 660.5938 8209.0566)" font-family="'SegoeUI-Semibold'" font-size="100">R</text>
<line fill="none" stroke="#000000" stroke-width="4" stroke-miterlimit="10" x1="660.254" y1="7712.463" x2="442.254" y2="8073.588"/>
<line fill="none" stroke="#000000" stroke-width="4" stroke-miterlimit="10" x1="882.277" y1="7666.1" x2="1196.254" y2="8061.727"/>
<line fill="none" stroke="#000000" stroke-width="4" stroke-miterlimit="10" x1="842.254" y1="7754.885" x2="960.766" y2="8062.588"/>
<line fill="none" stroke="#000000" stroke-width="4" stroke-miterlimit="10" x1="1933.254" y1="7738.885" x2="2051.766" y2="8046.588"/>
<line fill="none" stroke="#000000" stroke-width="4" stroke-miterlimit="10" x1="717" y1="7775.088" x2="717" y2="8063.088"/>
<line fill="none" x1="3595.686" y1="6920.959" x2="2758.976" y2="7757.67"/>
<circle fill="#44A7D8" stroke="#000000" stroke-width="4" stroke-miterlimit="10" cx="2990.766" cy="7655.1" r="118.512"/>
<circle fill="#44A7D8" stroke="#000000" stroke-width="4" stroke-miterlimit="10" cx="3191.766" cy="8170.1" r="118.512"/>
<circle fill="#44A7D8" stroke="#000000" stroke-width="4" stroke-miterlimit="10" cx="3460.766" cy="8170.1" r="118.512"/>
<circle fill="#44A7D8" stroke="#000000" stroke-width="4" stroke-miterlimit="10" cx="2642.766" cy="8181.1" r="118.512"/>
<circle fill="#44A7D8" stroke="#000000" stroke-width="4" stroke-miterlimit="10" cx="2922.766" cy="8170.1" r="118.512"/>
<line fill="none" stroke="#000000" stroke-width="4" stroke-miterlimit="10" x1="2891.254" y1="7701.463" x2="2673.254" y2="8062.588"/>
<line fill="none" stroke="#000000" stroke-width="4" stroke-miterlimit="10" x1="3113.277" y1="7655.1" x2="3427.254" y2="8050.727"/>
<line fill="none" stroke="#000000" stroke-width="4" stroke-miterlimit="10" x1="3073.254" y1="7743.885" x2="3191.766" y2="8051.588"/>
<line fill="none" x1="2948.925" y1="7764.088" x2="2948.925" y2="8052.088"/>
<line fill="none" x1="1387.55" y1="7236.365" x2="1629.681" y2="7547.588"/>
<line fill="none" stroke="#000000" stroke-width="4" stroke-miterlimit="10" x1="1387.551" y1="7236.365" x2="1779.65" y2="7547.588"/>
<line fill="none" stroke="#000000" stroke-width="4" stroke-miterlimit="10" x1="1429.277" y1="7112.123" x2="2990.766" y2="7536.588"/>
<text transform="matrix(1 0 0 1 399.9268 8210.7568)" font-family="'SegoeUI-Semibold'" font-size="87">D</text>
<text transform="matrix(1 0 0 1 1492.7148 8198.9619)" font-family="'SegoeUI-Semibold'" font-size="87">D</text>
<text transform="matrix(1 0 0 1 2607.4863 8199.7568)" font-family="'SegoeUI-Semibold'" font-size="87">D</text>
<text transform="matrix(1 0 0 1 940.7656 8211.0996)" font-family="'SegoeUI-Semibold'" font-size="87">P</text>
<text transform="matrix(1 0 0 1 1199.7681 8205.7627)" font-family="'SegoeUI-Semibold'" font-size="87">i1</text>
<text transform="matrix(1 0 0 1 1744.7656 8203.0996)" font-family="'SegoeUI-Semibold'" font-size="87">C</text>
<text transform="matrix(1 0 0 1 2891.2539 8196.0996)" font-family="'SegoeUI-Semibold'" font-size="87">C</text>
<text transform="matrix(1 0 0 1 2308.541 8194.7578)" font-family="'SegoeUI-Semibold'" font-size="87">I2</text>
<text transform="matrix(1 0 0 1 3107.377 8198.7617)" font-family="'SegoeUI-Semibold'" font-size="87">P&gt;A</text>
<text transform="matrix(1 0 0 1 3426.3105 8197.7617)" font-family="'SegoeUI-Semibold'" font-size="87">I3</text>
<text transform="matrix(0.5302 -0.8479 0.8479 0.5302 1564.6445 7942.5889)" font-family="'SegoeUI-Semibold'" font-size="70">type</text>
<text transform="matrix(0.5302 -0.8479 0.8479 0.5302 456.2285 7962.5889)" font-family="'SegoeUI-Semibold'" font-size="87">type</text>
<text transform="matrix(0.5302 -0.8479 0.8479 0.5302 2673.2285 7958.5889)" font-family="'SegoeUI-Semibold'" font-size="87">type</text>
<text transform="matrix(0.032 0.9995 -0.9995 0.032 2957.2432 7827.0488)" font-family="'SegoeUI-Semibold'" font-size="87">title</text>
<text transform="matrix(0.032 0.9995 -0.9995 0.032 1821.7627 7811.0488)" font-family="'SegoeUI-Semibold'" font-size="87">title</text>
<text transform="matrix(0.032 0.9995 -0.9995 0.032 736.7622 7863.9883)" font-family="'SegoeUI-Semibold'" font-size="87">title</text>
<text transform="matrix(0.357 0.9341 -0.9341 0.357 1970.3115 7775.1221)" font-family="'SegoeUI-Semibold'" font-size="65">location</text>
<text transform="matrix(0.357 0.9341 -0.9341 0.357 862.3115 7743.9189)" font-family="'SegoeUI-Semibold'" font-size="87">location</text>
<text transform="matrix(0.357 0.9341 -0.9341 0.357 3099.1631 7742.6152)" font-family="'SegoeUI-Semibold'" font-size="81.9887">location</text>
<text transform="matrix(0.5415 0.8407 -0.8407 0.5415 3275.9307 7809.751)" font-family="'SegoeUI-Semibold'" font-size="87">id3</text>
<text transform="matrix(0.5415 0.8407 -0.8407 0.5415 2170.3193 7836.9131)" font-family="'SegoeUI-Semibold'" font-size="87">id2</text>
<text transform="matrix(0.5415 0.8407 -0.8407 0.5415 1079.3198 7852.9131)" font-family="'SegoeUI-Semibold'" font-size="87">id1</text>
<text transform="matrix(1 0 0 1 1806.6436 7674.8574)" font-family="'SegoeUI-Semibold'" font-size="100">{ }</text>
<line fill="none" stroke="#000000" stroke-width="4" stroke-miterlimit="10" x1="203" y1="7786.088" x2="203" y2="8092.088"/>
<text transform="matrix(0.0024 -1 1 0.0024 180.2617 8078.9912)" font-family="'SegoeUI-Semibold'" font-size="55">description</text>
<text transform="matrix(1 0 0 1 -391.4785 4686.0879)" font-family="'SegoeUI-Semibold'" font-size="100">ELEMENTS</text>
<text transform="matrix(1 0 0 1 1974.6025 8184.7607)" font-family="'SegoeUI-Semibold'" font-size="87">ENG</text>
<text transform="matrix(1 0 0 1 3975.2119 4928.8281)" font-family="'SegoeUI-Semibold'" font-size="87" letter-spacing="5">-</text>
<text transform="matrix(1 0 0 1 2948.9248 7686.0986)" font-family="'SegoeUI-Semibold'" font-size="100">{ }</text>
<text transform="matrix(1 0 0 1 1583.5996 7350.3135)" font-family="'SegoeUI-Semibold'" font-size="87">1</text>
<text transform="matrix(1.0346 0 0 1 2170.2773 7287.5576)" font-family="'SegoeUI-Semibold'" font-size="84.0901">2</text>
<text transform="matrix(1 0 0 1 -507.8945 7187.9619)" stroke="#000000" font-family="'SegoeUI-Semibold'" font-size="87">[ ]</text>
<text transform="matrix(1 0 0 1 -255.9448 7187.9717)" font-family="'SegoeUI-Semibold'" font-size="87">VAL</text>
<text transform="matrix(1 0 0 1 1108.1563 1076.6367)" stroke="#000000" stroke-width="4" stroke-miterlimit="10" font-family="'SegoeUI-Semibold'" font-size="87">{ }</text>
<line stroke="#000000" stroke-width="2" stroke-miterlimit="10" x1="2970" y1="5021.088" x2="2968" y2="5021.088"/>
<text transform="matrix(1 0 0 1 2840.415 4813.9766)" font-family="'SegoeUI-Semibold'" font-size="87">P1</text>
<text transform="matrix(1 0 0 1 3127.5098 4813.5879)" font-family="'SegoeUI-Semibold'" font-size="87" letter-spacing="7">project template-create Project template-name</text>
<text transform="matrix(1 0 0 1 4575.9248 4927.7266)" font-family="'SegoeUI-Semibold'" font-size="87" letter-spacing="7">template-description</text>
<text transform="matrix(1 0 0 1 2865.9248 5042.0879)" font-family="'SegoeUI-Semibold'" font-size="87" letter-spacing="3">g</text>
<text transform="matrix(1 0 0 1 3113.6748 5044.8711)" font-family="'SegoeUI-Semibold'" font-size="87" letter-spacing="3"> google-drive-right-container-grid-hidden</text>
<text transform="matrix(0.0099 -0.9999 0.9999 0.0099 -507.8955 8057.6338)" font-family="'SegoeUI-Semibold'" font-size="87" letter-spacing="5">p-t-n</text>
</svg>
